<?xml version="1.0" encoding="UTF-8"?>
<svg width="350px" height="335px" viewBox="0 0 350 335" version="1.1" xmlns="http://www.w3.org/2000/svg" xmlns:xlink="http://www.w3.org/1999/xlink">
    <!-- Generator: Sketch 52.5 (67469) - http://www.bohemiancoding.com/sketch -->
    <title>Black</title>
    <desc>Created with Sketch.</desc>
    <g id="Page-1" stroke="none" stroke-width="1" fill="none" fill-rule="evenodd">
        <g id="Landing" transform="translate(-1325.000000, -623.000000)">
            <g id="Black" transform="translate(1325.000000, 623.000000)">
                <rect id="Rectangle" fill="#242424" x="0" y="0" width="350" height="335"></rect>
                <path d="M77.3848231,0.437268626 L338.109639,69.7294824 C345.120086,71.5926323 350.000017,77.938891 350.000017,85.1926971 L350.000017,275.862357 L1.69511151e-05,275.862357 L1.6953566e-05,227.548263 C1.69539023e-05,220.920846 5.37259996,215.548263 12.000017,215.548263 C12.2681627,215.548263 12.5362331,215.557251 12.8037767,215.575211 L144.184966,224.394927 C157.410034,225.282735 168.85078,215.28141 169.738589,202.056342 C170.072392,197.0839 168.849984,192.130868 166.241026,187.8847 L62.9694627,19.8066973 C59.2108519,13.6894297 61.1229211,5.68344854 67.2401887,1.92483781 C70.2751275,0.0600912881 73.9422857,-0.47764634 77.3848231,0.437268626 Z" id="Rectangle" fill="#373737" transform="translate(175.000017, 137.931721) scale(-1, -1) translate(-175.000017, -137.931721) "></path>
            </g>
        </g>
    </g>
</svg>