<?xml version="1.0" encoding="UTF-8"?>
<svg width="350px" height="335px" viewBox="0 0 350 335" version="1.1" xmlns="http://www.w3.org/2000/svg" xmlns:xlink="http://www.w3.org/1999/xlink">
    <!-- Generator: Sketch 52.2 (67145) - http://www.bohemiancoding.com/sketch -->
    <title>Group 3</title>
    <desc>Created with Sketch.</desc>
    <g id="Page-1" stroke="none" stroke-width="1" fill="none" fill-rule="evenodd">
        <g id="Landing" transform="translate(-1325.000000, -228.000000)">
            <g id="Group-3" transform="translate(1325.000000, 227.000000)">
                <path d="M16,1 L334,1 C342.836556,1 350,8.163444 350,17 L350,336 L16,336 C7.163444,336 1.082166e-15,328.836556 0,320 L0,17 C-1.082166e-15,8.163444 7.163444,1 16,1 Z" id="Rectangle" fill="#FF8888"></path>
                <path d="M246.931434,177.661027 L319.216927,7.09684986 C320.783586,3.4001754 324.409251,0.998913895 328.424201,0.998913895 L350.000017,0.998913895 L350.000017,336 L-4.54798905e-06,336 L-3.57427613e-07,279.657923 C-1.27996263e-07,276.57322 1.18789692,273.606988 3.31710071,271.374974 L178.821099,87.39663 C184.158071,81.8019586 193.019919,81.5930516 198.61459,86.9300233 C200.788779,89.004066 202.237986,91.7225936 202.748004,94.6837816 L216.43196,174.133485 C217.931833,182.84182 226.207221,188.685433 234.915556,187.18556 C240.280337,186.261561 244.80724,182.673256 246.931434,177.661027 Z" id="Rectangle" fill="#FF6060" transform="translate(175.000006, 168.499457) scale(-1, -1) translate(-175.000006, -168.499457) "></path>
            </g>
        </g>
    </g>
</svg>