<?xml version="1.0" encoding="UTF-8"?>
<svg width="73px" height="38px" viewBox="0 0 73 38" version="1.1" xmlns="http://www.w3.org/2000/svg" xmlns:xlink="http://www.w3.org/1999/xlink">
    <!-- Generator: Sketch 52.2 (67145) - http://www.bohemiancoding.com/sketch -->
    <title>Dan</title>
    <desc>Created with Sketch.</desc>
    <g id="Page-1" stroke="none" stroke-width="1" fill="none" fill-rule="evenodd">
        <g id="Landing" transform="translate(-135.000000, -75.000000)" fill="#000000">
            <path d="M162.4,103.1 C162.3,103.25 162.3,103.4 162.3,103.55 C160.25,105.6 158.1,107.9 155.4,109.15 C154.7,108.8 154.35,109.75 153.8,109.6 C153.75,109.7 153.55,109.75 153.5,109.85 C153.15,109.65 152.7,110.1 152.5,110 C151.1,111 149.55,111.3 147.45,111.1 C146.2,111 144.65,110.65 143.25,110.45 C141.05,110.15 139,109.3 137.5,108.55 C136.75,108.5 136.55,108.65 136,108.65 C135.95,108.45 135.7,108.4 135.4,108.4 C135.45,108.2 135.55,107.95 135.45,107.75 C135.6,107.5 135.95,107.5 136,107.15 C135.95,107 135.65,107.15 135.6,107 C135.65,106.95 135.75,106.75 135.5,106.8 C135.8,106.45 135.95,106.35 136.4,106.2 C136.25,105.9 135.8,105.9 135.4,105.85 C135.55,105.25 135.4,105 135,104.45 C135.15,104 135.1,103.65 135.4,103.25 C135.3,103.15 135.35,102.95 135.2,102.9 C135.3,102.8 135.3,102.6 135.4,102.45 C136.05,95.85 136.75,88.25 138.05,82.05 C138.2,81.2 138.55,80.3 138.95,79.55 C139,79.35 138.85,79.35 138.9,79.15 C139.1,78.65 139.7,78.55 140.35,78.5 C140.5,78.5 140.35,78.2 140.45,78.15 C140.8,78.3 141,78.1 141.25,78 C141.3,77.75 140.85,77.65 141.05,77.45 C141.25,77.3 141.65,77.6 141.95,77.25 C142.15,77.45 142.5,77.5 142.7,77.25 C142.25,76.95 141.8,76.65 141.25,76.45 C141.4,76.1 141.9,76.4 142.05,76.4 C142.85,76 144.3,75.95 145.1,75.75 C145.25,75.7 145.25,75.6 145.35,75.55 C147.1,75.25 148.95,75.55 150.7,75.6 C151.65,75.65 153.15,76.05 154.05,76.5 C155.05,76.5 156.05,77 156.8,77.45 C157.95,77.6 158.55,78.35 159.6,78.65 C160.3,79.15 160.95,79.55 161.55,80.15 C162.8,81.55 163.6,83.4 164.5,85.15 C164.45,85.25 164.45,85.35 164.45,85.5 C164.65,91.5 165.25,97.55 162.4,103.1 Z M155.45,95.85 C155.9,94.75 155.7,92.8 155.6,91.35 C155.5,90.05 155.3,88.7 154.95,87.7 C154.85,87.45 154.55,87.2 154.4,86.9 C154.2,86.5 154.1,85.85 153.8,85.55 C153.6,85.35 153.05,85.1 152.6,84.9 C151.05,84.15 149.25,83.6 147.05,83.7 C147.15,85.05 147.45,86.2 146.55,87.1 C146.7,87.75 146.3,88.1 146.15,88.65 C145.75,90.55 145.8,93.65 145.7,96.3 C145.65,97.6 145.35,99.1 145.5,100.1 C145.55,100.4 145.75,100.65 145.75,101 C145.75,101.4 145.6,101.8 145.55,102.2 C147.05,101.75 148.65,101.4 149.8,100.8 C149.95,100.8 149.85,100.45 150.05,100.4 C151.2,99.95 152.05,99.25 153,98.45 C153.75,97.8 155.15,96.7 155.45,95.85 Z M173.775583,85.3570321 C174.007533,85.2262451 173.854714,84.3621997 174.45,84.64 C174.49,84.88 174.57,85.08 174.69,85.28 C174.85,85.16 175.09,85.2 175.29,85.04 C175.29,85 175.17,84.8 175.37,84.84 C175.37,84.72 175.25,84.72 175.21,84.64 C175.45,84.32 176.01,83.68 176.41,84.12 C176.57,84.08 176.69,83.92 176.85,84.04 C176.81,83.88 176.89,83.6 176.77,83.52 C176.81,83.48 176.85,83.48 176.85,83.52 C177.17,83.44 177.01,83.16 177.17,82.88 C177.97,83.04 178.09,83.76 178.57,84.12 C178.81,83.96 179.13,84 179.41,84.04 C179.45,84.16 179.41,84.24 179.37,84.32 C179.97,85.12 180.73,85.8 181.01,86.92 C181.21,87.16 181.49,87.56 181.49,87.84 C181.57,88 181.73,88.08 181.85,88.24 C182.05,89.48 182.85,90.56 182.77,91.64 C182.89,92.08 182.97,92.56 183.13,92.96 C183.21,93 183.25,92.92 183.33,92.92 C183.17,93.12 183.57,93.16 183.33,93.24 C183.37,93.36 183.41,93.48 183.53,93.52 C183.45,95.2 184.29,97.04 184.25,98.48 C184.17,98.36 185.01,106.24 185.09,106.16 C185.37,107 185.37,108 185.33,108.84 C185.33,109.2 185.45,109.48 185.61,109.72 C185.57,109.76 185.69,110 185.57,109.96 C185.17,109.92 184.93,109.88 184.53,109.8 C184.53,109.72 184.65,109.76 184.65,109.68 C184.610092,109.560276 184.410918,109.67945 184.410003,109.560823 C184.369992,109.719999 184.129999,109.680004 184.09,109.92 C184.158998,110.023496 184.287504,109.888959 184.321545,109.77301 C184.486902,109.910413 184.021999,110.245142 184.29,110.36 C184.251181,110.476456 184.061674,110.442223 183.940835,110.513219 C184.27627,110.310578 183.648277,109.880431 183.49,109.92 C183.45,110.12 183.73,110 183.69,110.2 C183.57,110.32 183.45,109.92 183.37,110.24 C183.25,110.24 183.45,110.16 183.37,110.04 C183.13,110 183.25,110.32 183.09,110.4 C183.25,110.56 183.09,110.52 183.13,110.68 C183.21,111 182.81,110.72 182.53,110.6 C182.41,110.64 182.69,110.72 182.61,110.88 C182.33,110.92 182.25,111.24 181.81,111.24 C181.85,110.92 181.57,110.92 181.45,110.76 C181.13,111.04 181.05,111.52 180.57,111.68 C180.49,111.2 180.33,110.76 180.21,110.28 C180.33,110.24 180.25,110.12 180.37,110.24 C180.29,109.96 180.41,110 180.45,109.72 C180.49,109.76 180.21,107.28 180.21,107.16 C180.05,106.72 180.05,105.32 180.01,105.44 C179.97,105.12 179.97,104.64 180.13,104.24 C180.13,104.2 180.05,102.92 179.89,102.68 C179.73,102.76 177.25,102.72 176.89,102.52 C175.57,102.68 174.61,102.68 173.37,102.76 C173.33,102.88 173.05,102.88 172.89,103.32 C173.01,103.44 171.53,106.64 171.97,106.92 L171.97,107.12 C172.09,107.2 172.17,107.28 172.29,107.36 C171.89,107.76 171.53,108.2 171.09,108.6 C171.01,108.6 170.89,108.56 170.77,108.56 C170.69,108.76 170.81,108.76 170.93,108.76 C170.73,108.96 170.53,109.12 170.33,109.28 C170.13,109.32 169.97,109.4 169.93,109.28 C168.49,110 167.21,109.6 165.57,110.04 C163.93,108.84 164.89,105.84 165.37,104.08 C165.41,103.96 165.41,103.84 165.41,103.72 C165.53,103.72 165.69,103.72 165.81,103.68 C165.77,103.48 165.49,103.56 165.49,103.32 C165.45,103.12 165.61,103.12 165.65,102.96 C165.65,102.8 165.45,102.88 165.45,102.76 C165.77,101.96 165.01,101.2 165.85,100.68 C165.97,100.52 165.77,100.44 165.97,100.36 C165.97,100.28 165.93,100.2 165.85,100.16 C166.13,98.4 167.01,96.8 167.69,95.2 C168.37,93.72 168.93,92.24 169.57,90.76 C170.01,89.64 170.49,88.24 171.13,87.24 C171.45,86.72 171.69,86.12 172.09,85.64 C172.25,85.44 172.45,85.28 172.53,85 C173.13,85.04 173.29,85.12 173.69,85.48 C173.81,85.56 173.69,85.28 173.73,85.2 C173.767624,85.2 173.805247,85.3415528 173.776299,85.3583728 L173.775583,85.3570321 Z M176.33,94.24 C175.61,95.72 175.09,97.36 174.53,98.96 C175.81,99.12 177.61,98.6 178.73,98.84 C178.37,98.4 176.61,94.72 176.33,94.24 Z M205.630444,97.4339678 C205.652306,97.4076936 205.687548,97.3726453 205.67,97.32 C205.285,98.65 204.865,99.56 204.375,101.065 C204.2,101.1 204.2,101.065 204.095,101.205 C204.06,101.38 204.165,101.38 204.13,101.52 C203.92,101.73 204.025,102.01 203.99,102.22 C203.955,102.325 203.85,102.43 203.815,102.535 C203.71,102.85 203.78,103.375 203.71,103.76 C203.57,104.355 203.57,105.23 203.465,105.965 C203.43,106.21 203.29,106.455 203.29,106.7 C203.29,107.33 203.255,107.855 203.255,108.415 C203.15,108.52 202.975,108.625 203.08,108.765 C203.01,108.835 202.94,108.835 202.87,108.765 C202.905,108.975 202.835,109.29 202.87,109.325 C202.87,109.395 202.765,109.36 202.695,109.395 C202.31,110.235 202.835,110.97 203.15,111.74 C202.905,111.985 203.08,112.3 202.94,112.615 C202.8,112.615 202.765,112.51 202.66,112.475 C202.555,112.65 202.415,112.615 202.275,112.51 C202.205,112.58 202.1,112.615 202.065,112.72 C202.03,112.79 202.065,112.86 202.135,112.86 C201.89,113 201.68,112.685 201.365,112.79 C201.26,112.58 201.015,112.475 200.91,112.3 C200.77,112.3 200.63,112.3 200.665,112.475 C200.455,112.16 200.035,112.335 199.93,111.985 C199.685,111.985 199.615,111.95 199.475,112.09 C198.18,111.495 196.92,111.11 195.52,110.445 C195.485,109.395 194.855,108.52 194.365,107.75 C193.595,106.21 193.105,104.355 192.475,102.64 C192.265,103.76 192.545,104.845 192.475,105.93 C192.44,106.7 192.02,107.47 192.02,108.31 C192.02,108.835 192.055,109.675 191.985,110.305 C191.915,110.795 191.495,111.355 191.81,111.915 C191.53,112.3 191.355,112.825 190.725,112.72 C190.69,112.51 190.515,112.475 190.515,112.3 C190.165,112.44 189.92,112.265 189.675,112.3 C189.5,112.125 189.465,111.845 189.08,111.915 C188.87,111.67 188.695,111.425 188.555,111.075 C187.33,110.41 186.665,109.185 185.65,108.31 C185.965,107.89 185.72,107.015 185.895,106.525 C185.895,106.42 185.79,106.455 185.79,106.385 C185.86,105.685 185.79,104.425 185.965,103.83 C185.965,102.325 186.315,100.715 186.525,99.385 C186.595,97.11 186.945,95.5 187.575,93.575 C187.61,93.47 187.505,93.47 187.54,93.365 C188.135,92.035 188.17,90.565 188.8,89.235 C188.625,88.465 189.255,87.695 188.975,86.89 C189.01,86.54 189.395,86.33 189.395,86.085 C189.64,85.98 189.71,85.805 189.99,85.91 C190.095,86.05 190.095,86.295 190.27,86.33 C190.305,86.295 190.34,86.295 190.41,86.295 C190.375,86.05 190.305,85.84 190.27,85.63 C190.375,85.525 190.375,85.56 190.55,85.595 C190.55,85.455 190.445,85.455 190.55,85.35 C190.935,85.455 191.11,85.245 191.565,85.315 C191.88,85.91 192.3,86.4 192.895,86.68 C193,86.505 192.93,86.12 192.965,85.875 C194.05,86.61 194.47,87.94 194.015,89.55 C194.645,90.95 195.275,92.315 195.8,93.855 C196.045,94.59 196.255,95.325 196.5,96.06 C196.99,97.495 197.55,99.315 198.04,100.89 C198.11,100.54 198.145,100.155 198.355,99.805 C198.39,99.84 198.39,99.91 198.46,99.91 C198.635,99.875 198.39,99.665 198.6,99.63 C198.565,99.56 198.425,99.665 198.39,99.525 C198.355,99.21 198.705,99.14 198.635,98.895 C198.6,98.755 198.775,98.825 198.81,98.755 C198.74,98.615 198.845,98.545 198.81,98.335 C199.405,97.46 199.44,95.92 200.105,94.975 C200.105,94.905 200.035,94.94 199.965,94.905 C200.28,94.52 200.105,93.995 200.42,93.68 C200.455,93.4 200.42,93.085 200.63,93.015 C201.295,90.67 201.89,88.185 202.975,86.155 C202.835,85.525 203.43,85.315 203.675,84.93 C204.13,85.035 204.165,85.805 204.62,85.735 C204.795,85.7 204.515,85.49 204.725,85.525 C204.375,85.315 204.34,85.21 204.445,84.79 C204.55,84.965 204.62,84.65 204.69,84.65 C204.76,84.65 204.795,84.86 204.97,84.895 C205.145,84.93 205.39,84.72 205.565,85 C205.74,85.035 205.74,84.86 205.845,84.79 C205.775,84.65 205.705,84.475 205.705,84.3 C205.81,84.37 205.915,84.475 205.88,84.72 C206.055,84.72 206.125,84.755 206.3,84.86 C206.37,84.58 206.51,84.44 206.755,84.475 C207.63,85.42 207.525,86.82 207.49,88.22 C207.49,88.675 207.56,89.27 207.56,89.83 C207.525,90.04 207.455,90.32 207.455,90.53 C207.455,90.6 207.56,90.635 207.56,90.705 C207.525,91.23 207.245,91.825 207.28,92.385 C207.245,92.42 207.21,92.42 207.14,92.42 C206.895,93.715 206.58,94.66 206.055,95.745 C206.125,96.095 205.985,96.305 205.845,96.585 C206.02,96.41 205.775,97.11 205.6,97.005 C205.658959,97.2113578 205.668259,97.2439052 205.669725,97.3954351 L205.630444,97.4339678 Z" id="Dan"></path>
        </g>
    </g>
</svg>