<?xml version="1.0" encoding="UTF-8"?>
<svg width="350px" height="335px" viewBox="0 0 350 335" version="1.1" xmlns="http://www.w3.org/2000/svg" xmlns:xlink="http://www.w3.org/1999/xlink">
    <!-- Generator: Sketch 52.2 (67145) - http://www.bohemiancoding.com/sketch -->
    <title>Group 2</title>
    <desc>Created with Sketch.</desc>
    <g id="Page-1" stroke="none" stroke-width="1" fill="none" fill-rule="evenodd">
        <g id="Landing" transform="translate(-905.000000, -623.000000)">
            <g id="Group-2" transform="translate(905.000000, 623.000000)">
                <rect id="Rectangle" fill="#47E6BC" x="0" y="0" width="350" height="335"></rect>
                <path d="M148.095553,99.1674244 L319.49685,1.31556696 C321.006987,0.45343975 322.715834,-1.38914237e-14 324.454735,-1.42108547e-14 L350.000021,0 L350.000021,335.001159 L8.52651283e-14,335.001159 L4.03691614e-06,220.096082 C4.26975465e-06,213.468665 5.37258746,208.096082 12.0000045,208.096082 C12.76582,208.096082 13.5298771,208.169391 14.2817213,208.315006 L195.817747,243.474262 C202.866465,244.839433 209.687269,240.232007 211.05244,233.183289 C211.695083,229.865163 211.020212,226.427196 209.1709,223.598239 L142.635808,121.817213 C137.800724,114.420817 139.877077,104.505242 147.273473,99.6701573 C147.54239,99.4943641 147.816541,99.3267104 148.095553,99.1674244 Z" id="Rectangle" fill="#42CCBC"></path>
            </g>
        </g>
    </g>
</svg>